<svg id="Layer_1" data-name="Layer 1" xmlns="http://www.w3.org/2000/svg" width="175.9" height="81.5" viewBox="0 0 175.9 81.5"><path id="Path-Copy" d="M40.7,0A40.5,40.5,0,0,1,73.2,16.3a2.5,2.5,0,1,1-4,3,35.7,35.7,0,1,0-.5,43.5,2.7,2.7,0,0,1,3.6-.5,2.8,2.8,0,0,1,.4,3.6A40.7,40.7,0,1,1,40.7,0Z" style="fill:#ee781e"/><path d="M27.2,58.3c2.2,0,3.5-1.4,3.5-3.7V27.1c0-2.3-1.3-3.7-3.5-3.7s-3.5,1.4-3.5,3.7V54.6C23.7,56.9,25,58.3,27.2,58.3Z" style="fill:#ee781e"/><path d="M50.9,58.3c2.2,0,3.6-1.4,3.6-3.8V29.4h7c2,0,3.3-1.1,3.3-3a3,3,0,0,0-3.3-3H40.3a3,3,0,0,0-3.3,3c0,1.9,1.3,3,3.3,3h7V54.5C47.3,56.9,48.6,58.3,50.9,58.3Z" style="fill:#ee781e"/><path id="V" d="M78.8,38.2a2.9,2.9,0,0,0,3-2.2l3.7-10a1.6,1.6,0,0,0,.2-1,1.7,1.7,0,0,0-1.9-1.7,1.8,1.8,0,0,0-1.9,1.4l-3,9.7h-.1l-3-9.6a1.9,1.9,0,0,0-2-1.5,1.8,1.8,0,0,0-2,1.8,3,3,0,0,0,.2,1L75.7,36A2.9,2.9,0,0,0,78.8,38.2Z" style="fill:#ee781e"/><path d="M101.4,35.8,97.3,25a2.3,2.3,0,0,0-2.4-1.7A2.4,2.4,0,0,0,92.5,25L88.4,35.8a2,2,0,0,0-.2,1,1.4,1.4,0,0,0,1.6,1.4c.8,0,1.3-.4,1.6-1.4l.8-2.2h5.4l.8,2.3a1.6,1.6,0,0,0,1.7,1.3,1.4,1.4,0,0,0,1.5-1.4A2,2,0,0,0,101.4,35.8Zm-8.5-3.6,1.9-5.9h.1l2,5.9Z" style="fill:#000270"/><path d="M114.1,38a1.2,1.2,0,0,0,1.4-1.3c0-.7-.5-1.2-1.4-1.2h-5.4V24.9a1.4,1.4,0,0,0-1.5-1.6,1.5,1.5,0,0,0-1.6,1.6V36.4a1.5,1.5,0,0,0,1.6,1.6Z" style="fill:#000270"/><path d="M125.5,38.2c3.8,0,6.3-2.1,6.3-5.3v-8a1.6,1.6,0,1,0-3.2,0v7.7a3.2,3.2,0,0,1-6.3,0V24.9a1.6,1.6,0,1,0-3.2,0v8C119.1,36.1,121.6,38.2,125.5,38.2Z" style="fill:#000270"/><path d="M144.5,38a1.2,1.2,0,0,0,1.4-1.3c0-.7-.5-1.2-1.4-1.2h-5.6V31.8h5.3c.8,0,1.3-.4,1.3-1.1s-.5-1.2-1.3-1.2h-5.3V26h5.6c.9,0,1.4-.4,1.4-1.2a1.2,1.2,0,0,0-1.4-1.3h-7.2a1.5,1.5,0,0,0-1.6,1.6V36.4a1.5,1.5,0,0,0,1.6,1.6Z" style="fill:#000270"/><path id="P" d="M74.3,58.1a1.7,1.7,0,0,0,1.9-1.9V53.6h2.5c3.3,0,5.6-2,5.6-5.2s-2.1-5.2-5.4-5.2H74.3a1.8,1.8,0,0,0-1.9,2v11A1.7,1.7,0,0,0,74.3,58.1Zm3.6-7.3H76.2V46.1h1.7c1.6,0,2.6.8,2.6,2.3S79.5,50.8,77.9,50.8Z" style="fill:#ee781e"/><path d="M101.4,55.7,97.3,44.9a2.3,2.3,0,0,0-2.4-1.7,2.5,2.5,0,0,0-2.4,1.7L88.4,55.7a4.4,4.4,0,0,0-.2,1c0,.9.6,1.4,1.6,1.4s1.3-.4,1.6-1.4l.8-2.2h5.4l.8,2.3c.3.9.7,1.3,1.6,1.3a1.5,1.5,0,0,0,1.6-1.4A4.4,4.4,0,0,0,101.4,55.7Zm-8.5-3.6,1.9-5.9h.1l2,5.9Z" style="fill:#000270"/><path d="M113.8,52.1a4.2,4.2,0,0,0,2.5-4.1c0-2.8-1.9-4.6-5.4-4.6h-4.6a1.4,1.4,0,0,0-1.5,1.6V56.6a1.4,1.4,0,0,0,1.5,1.5,1.4,1.4,0,0,0,1.6-1.5v-4h2.7l2.5,4.4c.5.9.8,1.1,1.6,1.1a1.4,1.4,0,0,0,1.6-1.4,1.6,1.6,0,0,0-.4-1Zm-3.2-1.7h-2.7V45.8h2.7a2.3,2.3,0,0,1,2.5,2.3A2.2,2.2,0,0,1,110.6,50.4Z" style="fill:#000270"/><path d="M125.5,58.1a1.4,1.4,0,0,0,1.5-1.6V45.9h3.1c.9,0,1.5-.4,1.5-1.2a1.3,1.3,0,0,0-1.5-1.3h-9.3a1.2,1.2,0,0,0-1.4,1.3c0,.8.6,1.2,1.4,1.2h3.1V56.5A1.5,1.5,0,0,0,125.5,58.1Z" style="fill:#000270"/><path d="M145.7,58.1a1.4,1.4,0,0,0,1.5-1.5V44.7a1.5,1.5,0,1,0-3,0v8.2h-.1l-6.5-8.8a1.9,1.9,0,0,0-1.5-.9,1.4,1.4,0,0,0-1.6,1.5V56.6a1.3,1.3,0,0,0,1.5,1.5,1.4,1.4,0,0,0,1.5-1.5V48.4h.1l6.5,8.8A1.7,1.7,0,0,0,145.7,58.1Z" style="fill:#000270"/><path d="M159.4,57.9c.9,0,1.4-.4,1.4-1.2a1.2,1.2,0,0,0-1.4-1.3h-5.6V51.8h5.3a1.2,1.2,0,1,0,0-2.4h-5.3V45.9h5.6c.9,0,1.4-.4,1.4-1.2a1.2,1.2,0,0,0-1.4-1.3h-7.1a1.5,1.5,0,0,0-1.6,1.6V56.3a1.5,1.5,0,0,0,1.6,1.6Z" style="fill:#000270"/><path d="M173.3,52.1a4.2,4.2,0,0,0,2.6-4.1c0-2.8-2-4.6-5.4-4.6h-4.6a1.5,1.5,0,0,0-1.6,1.6V56.6a1.6,1.6,0,0,0,3.2,0v-4h2.6l2.5,4.4c.5.9.9,1.1,1.6,1.1a1.4,1.4,0,0,0,1.6-1.4,2.2,2.2,0,0,0-.3-1Zm-3.1-1.7h-2.7V45.8h2.6a2.3,2.3,0,0,1,2.6,2.3A2.3,2.3,0,0,1,170.2,50.4Z" style="fill:#000270"/></svg>